<svg width="85" height="85" viewBox="0 0 85 85" fill="none" xmlns="http://www.w3.org/2000/svg">
<path d="M66.4788 10.5165L17.5035 10.577C15.6479 10.5793 13.8692 11.3186 12.5587 12.6323C11.2483 13.946 10.5133 15.7265 10.5156 17.5821L10.5762 66.5574C10.5785 68.413 11.3178 70.1917 12.6315 71.5021C13.9452 72.8126 15.7257 73.5475 17.5813 73.5452L66.5566 73.4847C68.4122 73.4824 70.1909 72.7431 71.5013 71.4294C72.8118 70.1157 73.5467 68.3352 73.5444 66.4796L73.4839 17.5043C73.4816 15.6487 72.7423 13.87 71.4286 12.5596C70.1149 11.2491 68.3344 10.5142 66.4788 10.5165ZM31.5396 45.5421L31.5137 24.5526L52.5031 24.5267L52.5291 45.5161L42.0344 45.5291L49.0481 59.5134L38.5534 59.5264L31.5396 45.5421Z" fill="black"/>
</svg>
