<svg width="85" height="85" viewBox="0 0 85 85" fill="none" xmlns="http://www.w3.org/2000/svg">
<path d="M17.5827 10.5165L66.558 10.577C68.4135 10.5793 70.1922 11.3186 71.5027 12.6323C72.8132 13.946 73.5481 15.7265 73.5458 17.5821L73.4853 66.5574C73.483 68.413 72.7436 70.1917 71.4299 71.5021C70.1162 72.8126 68.3357 73.5475 66.4801 73.5452L17.5048 73.4847C15.6493 73.4824 13.8706 72.7431 12.5601 71.4294C11.2496 70.1157 10.5147 68.3352 10.517 66.4796L10.5775 17.5043C10.5798 15.6487 11.3191 13.87 12.6329 12.5596C13.9466 11.2491 15.7271 10.5142 17.5827 10.5165ZM52.5218 45.5421L52.5477 24.5526L31.5583 24.5267L31.5324 45.5161L42.0271 45.5291L35.0133 59.5134L45.508 59.5264L52.5218 45.5421Z" fill="black"/>
</svg>
